# xmcd CD database file
#
# Track frame offsets:
#	150
#	22415
#	39998
#	65301
#	85914
#	109771
#	144805
#	170780
#	193759
#	217198
#	239412
#	252534
#
# Disc length: 3739 seconds
#
# Revision: 0
# Processed by: cddbd v1.5.2PL0 Copyright (c) Steve Scherf et al.
# Submitted via: CDex 1.51
#
DISCID=b30e990c
DTITLE=Willie Nelson and Wynton Marsalis - Here We Go Again
DYEAR=1900
DGENRE=Blues
TTITLE0=Hallelujah I Love Her So
TTITLE1=Come Rain Or Come Shine
TTITLE2=Unchain My Heart
TTITLE3=Cryin' Time
TTITLE4=Losing Hand
TTITLE5=Hit The Road Jack
TTITLE6=I'm Moving On
TTITLE7=Busted
TTITLE8=Here We Go Again
TTITLE9=Makin' Whoopee
TTITLE10=I Love You So Much
TTITLE11=What'd I Say
EXTD=
EXTT0=
EXTT1=
EXTT2=
EXTT3=
EXTT4=
EXTT5=
EXTT6=
EXTT7=
EXTT8=
EXTT9=
EXTT10=
EXTT11=
PLAYORDER=
